#!OML:ASF H:\Pregnant\Project 1\Capture day 1\Session 1\femalepreg.ASF
:FULLY-SPECIFIED
:DEGREES
519
root 3.6158 16.0428 11.7111 20.7605 -9.43575 0.246626
lowerback -18.4302 -1.68171 -2.91356
upperback -6.99649 -1.8275 1.76485
thorax 2.94363 -0.874176 3.14667
lowerneck -16.5587 -11.47 -9.56834
upperneck 20.6966 -16.3178 10.7572
head 11.1474 -7.08547 2.85833
rclavicle 3.07868e-014 -1.59028e-014
rhumerus -36.4936 5.1643 -81.9105
rradius 24.3701
rwrist -1.6052
rhand -13.8677 -13.9695
rfingers 7.12502
rthumb 12.2566 -43.5903
lclavicle 3.07868e-014 -1.59028e-014
lhumerus -42.5772 -6.08963 87.3894
lradius 26.8726
lwrist 36.3214
lhand -21.8835 0.723937
lfingers 7.12502
lthumb 4.5213 30.6557
rfemur -30.252 24.1315 6.4508
rtibia 28.0145
rfoot -10.3126 -29.915
rtoes -16.3806
lfemur -12.3095 -7.46931 -16.5065
ltibia -1.59028e-015
lfoot -3.12941 19.5852
ltoes -3.97211
520
root 3.61787 16.0439 11.6932 20.7216 -9.40869 0.26778
lowerback -18.3387 -1.68929 -2.9389
upperback -6.94291 -1.83381 1.74182
thorax 2.95377 -0.877984 3.13612
lowerneck -16.5972 -11.5038 -9.60571
upperneck 20.7263 -16.3754 10.8231
head 11.1829 -7.10419 2.87441
rclavicle -2.2823e-014 1.74931e-014
rhumerus -36.5381 5.04214 -81.7777
rradius 24.2594
rwrist -1.52164
rhand -13.9078 -13.9738
rfingers 7.12502
rthumb 12.218 -43.5969
lclavicle -2.2823e-014 1.74931e-014
lhumerus -42.5769 -6.28325 87.4807
lradius 26.707
lwrist 36.3021
lhand -21.7704 0.779142
lfingers 7.12502
lthumb 4.63047 30.7085
rfemur -30.2801 24.095 6.42833
rtibia 28.0216
rfoot -10.2689 -29.8976
rtoes -16.3708
lfemur -12.3559 -7.50145 -16.5096
ltibia -1.43125e-014
lfoot -3.04638 19.5795
ltoes -4.05437
521
root 3.62002 16.045 11.6747 20.6829 -9.3794 0.285448
lowerback -18.2361 -1.69891 -2.96295
upperback -6.89826 -1.8436 1.72192
thorax 2.94883 -0.883175 3.12776
lowerneck -16.6178 -11.5297 -9.64248
upperneck 20.7547 -16.4222 10.8848
head 11.2128 -7.11933 2.89183
rclavicle 4.57143e-014 1.11319e-014
rhumerus -36.6003 4.94131 -81.6548
rradius 24.164
rwrist -1.45277
rhand -13.9603 -13.97
rfingers 7.12502
rthumb 12.1674 -43.5962
lclavicle 4.57143e-014 1.11319e-014
lhumerus -42.5873 -6.47592 87.5782
lradius 26.5501
lwrist 36.2863
lhand -21.6245 0.849898
lfingers 7.12502
lthumb 4.77135 30.7762
rfemur -30.3073 24.0566 6.40995
rtibia 28.025
rfoot -10.2229 -29.8766
rtoes -16.3536
lfemur -12.4048 -7.5342 -16.5078
ltibia -2.22639e-014
lfoot -2.96357 19.5746
ltoes -4.12965
522
root 3.62226 16.0459 11.6557 20.6436 -9.34776 0.298658
lowerback -18.1301 -1.70999 -2.98408
upperback -6.85724 -1.85612 1.70542
thorax 2.9385 -0.889606 3.12093
lowerneck -16.6211 -11.5493 -9.68037
upperneck 20.775 -16.4599 10.9466
head 11.2355 -7.13149 2.91206
rclavicle -2.40467e-014 1.25234e-014
rhumerus -36.6757 4.86238 -81.5417
rradius 24.0889
rwrist -1.40239
rhand -13.9952 -14.0073
rfingers 7.12502
rthumb 12.1338 -43.6354
lclavicle -2.40467e-014 1.25234e-014
lhumerus -42.6053 -6.66771 87.6825
lradius 26.4053
lwrist 36.2735
lhand -21.4335 0.967209
lfingers 7.12502
lthumb 4.95576 30.8893
rfemur -30.3324 24.0182 6.39612
rtibia 28.0236
rfoot -10.1758 -29.8554
rtoes -16.3282
lfemur -12.4537 -7.56752 -16.5009
ltibia 3.18055e-014
lfoot -2.88511 19.57
ltoes -4.18163
523
root 3.62458 16.0468 11.6364 20.6054 -9.31375 0.306089
lowerback -18.0245 -1.72084 -2.99892
upperback -6.81547 -1.86952 1.69028
thorax 2.92902 -0.896554 3.11178
lowerneck -16.62 -11.5648 -9.71475
upperneck 20.7885 -16.4914 11.006
head 11.2536 -7.14127 2.93232
rclavicle 6.41081e-015 7.95139e-016
rhumerus -36.7569 4.80183 -81.4411
rradius 24.0323
rwrist -1.37303
rhand -14.0332 -14.0416
rfingers 7.12502
rthumb 12.0971 -43.6719
lclavicle 6.41081e-015 7.95139e-016
lhumerus -42.621 -6.86481 87.7932
lradius 26.2732
lwrist 36.2727
lhand -21.2196 1.0879
lfingers 7.12502
lthumb 5.16236 31.005
rfemur -30.355 23.972 6.39086
rtibia 28.0165
rfoot -10.1225 -29.8268
rtoes -16.3062
lfemur -12.5049 -7.60088 -16.4872
ltibia -4.29375e-014
lfoot -2.80625 19.5671
ltoes -4.22749
524
root 3.62697 16.0477 11.6167 20.5694 -9.27716 0.308746
lowerback -17.919 -1.72939 -3.00561
upperback -6.7708 -1.88115 1.67247
thorax 2.92218 -0.902812 3.09555
lowerneck -16.6251 -11.5787 -9.7409
upperneck 20.7948 -16.5214 11.0657
head 11.2694 -7.14961 2.95148
rclavicle -1.79838e-014 2.0276e-014
rhumerus -36.8405 4.74713 -81.3531
rradius 23.9971
rwrist -1.35988
rhand -14.0595 -14.0669
rfingers 7.12502
rthumb 12.0718 -43.6987
lclavicle -1.79838e-014 2.0276e-014
lhumerus -42.6287 -7.07774 87.9097
lradius 26.153
lwrist 36.2873
lhand -20.9858 1.2235
lfingers 7.12502
lthumb 5.3881 31.135
rfemur -30.3779 23.9199 6.39124
rtibia 28.0047
rfoot -10.0675 -29.7935
rtoes -16.2899
lfemur -12.5596 -7.63479 -16.4676
ltibia 3.18055e-015
lfoot -2.73309 19.5658
ltoes -4.24836
525
root 3.62939 16.0487 11.5966 20.537 -9.23867 0.306199
lowerback -17.8193 -1.73295 -3.00077
upperback -6.71483 -1.88765 1.64856
thorax 2.9295 -0.907043 3.06711
lowerneck -16.6626 -11.5954 -9.75285
upperneck 20.7981 -16.5558 11.1252
head 11.2895 -7.15749 2.96597
rclavicle 1.09145e-014 -1.45113e-014
rhumerus -36.909 4.68592 -81.277
rradius 23.9774
rwrist -1.35448
rhand -14.0766 -14.0789
rfingers 7.12502
rthumb 12.0552 -43.7117
lclavicle 1.09145e-014 -1.45113e-014
lhumerus -42.6067 -7.30968 88.0268
lradius 26.0366
lwrist 36.3089
lhand -20.7255 1.37318
lfingers 7.12502
lthumb 5.63936 31.2781
rfemur -30.4029 23.8698 6.39528
rtibia 27.9883
rfoot -10.0065 -29.7626
rtoes -16.2764
lfemur -12.6187 -7.66829 -16.4415
ltibia -7.95139e-015
lfoot -2.66543 19.5653
ltoes -4.25131
